<svg xmlns="http://www.w3.org/2000/svg" viewBox="0 0 15 15" width="15" height="15" xml:space="preserve">
  <g transform="translate(0 0) scale(0.46875)">
    <path d="M15.64,21.21c0.12,0.04,0.24,0.06,0.36,0.06c0.12,0,0.24-0.02,0.35-0.06c2.33-0.8,6.72-3.82,6.72-9.58c0-3.91-3.18-7.08-7.07-7.08c-3.91,0-7.08,3.18-7.08,7.08C8.92,17.39,13.32,20.41,15.64,21.21z M16,8.39c1.77,0,3.21,1.44,3.21,3.21c0,1.77-1.44,3.21-3.21,3.21c-1.77,0-3.21-1.44-3.21-3.21C12.8,9.82,14.23,8.39,16,8.39z"/>
    <path d="M29.76,25.66l-5.42-6.78c-0.38-0.48-1.08-0.55-1.55-0.17c-0.48,0.38-0.55,1.08-0.17,1.55l3.98,4.98H5.4l3.98-4.98c0.38-0.48,0.3-1.17-0.17-1.55c-0.48-0.38-1.17-0.3-1.55,0.17l-5.42,6.78c-0.27,0.33-0.32,0.79-0.13,1.17c0.18,0.38,0.57,0.63,1,0.63h25.79c0.42,0,0.81-0.24,1-0.63C30.07,26.44,30.02,25.99,29.76,25.66z"/>
  </g>
</svg>
