<svg xmlns="http://www.w3.org/2000/svg" viewBox="0 0 512 512" version="1.1" width="15" height="15">
  <path d="M82.884 381.83h346.231c15.352 0 27.797-12.445 27.797-27.797V157.967c0-15.352-12.445-27.796-27.797-27.796H82.884c-15.352 0-27.796 12.445-27.796 27.796v196.066C55.088 369.385 67.533 381.83 82.884 381.83zM361.311 222.588l40.652 4.458c1.809-.083 3.588.463 5.038 1.546l4.981 3.722c1.344 1.003.891 3.12-.744 3.487l-33.717 1.585c-2.588.122-5.119-.775-7.053-2.498l-10.479-9.333c-1.238-1.103-.329-3.148 1.322-2.967zM299.039 208.268c2.719-.829 5.457-1.175 8.07-1.212 8.22-.117 16.158 3.003 22.424 8.325L393.831 270l13.874-2.647c3.623-.691 7.342.571 9.795 3.325l1.336 1.501c1.096 1.229.84 3.145-.539 4.044l-12.136 7.922c-7.428 4.85-17.075 4.621-24.266-.574l-31.505-22.762-.373 46.459c-.018 2.011-2.384 3.077-3.9 1.757l-5.625-4.896c-1.638-1.426-2.729-3.374-3.09-5.515l-9.055-53.731-31.6-22.831c-.799-.577-1.495-1.301-2.011-2.14-.04-.065-.08-.13-.118-.195-2.622-4.255-.475-9.816 4.419-11.308zM246.999 163.087h18.002v185.826h-18.002V163.087zM111.172 250.532l43.561-38.975c3.248-2.906 8.405-.601 8.405 3.758v16.843h35.018c4.97 0 8.999 4.029 8.999 8.999v29.687c0 4.97-4.029 8.998-8.999 8.998h-35.018v16.844c0 4.358-5.157 6.664-8.405 3.758l-43.561-38.975c-3.26-2.917-3.26-8.02 0-10.937z" />
</svg>
