<svg xmlns="http://www.w3.org/2000/svg" width="15" height="15" viewBox="0 0 24 24">
  <path d="M2.5 5.5l.616.616A3 3 0 0 0 7.384 6.116l.232-.232A3 3 0 0 1 11.884 5.884l.232.232A3 3 0 0 0 16.384 6.116l.232-.232A3 3 0 0 1 20.884 5.884l.616.616M2.5 11.5l.616.616A3 3 0 0 0 7.384 12.116l.232-.232A3 3 0 0 1 11.884 11.884l.232.232A3 3 0 0 0 16.384 12.116l.232-.232A3 3 0 0 1 20.884 11.884l.616.616M2.5 17.5l.616.616A3 3 0 0 0 7.384 18.116l.232-.232A3 3 0 0 1 11.884 17.884l.232.232A3 3 0 0 0 16.384 18.116l.232-.232A3 3 0 0 1 20.884 17.884l.616.616" fill="none" stroke="currentColor" stroke-width="2" stroke-linecap="round" stroke-linejoin="round"/>
</svg>
