<svg xmlns="http://www.w3.org/2000/svg" viewBox="0 0 15 15" width="15" height="15">
  <g transform="translate(0.000000 0.000000) scale(0.234375)"><g>
    <path d="M49,27.84,22.12,24C30,15.73,40.47,10.67,49.69,10.67l1.1,0a.5.5,0,0,1,.47.43A33.12,33.12,0,0,1,49,27.84ZM14.76,33.38l28.42,5a47.48,47.48,0,0,0,4.56-7.65l-28-4.06A69.92,69.92,0,0,0,14.76,33.38Zm-1.7,2.75,28,4.9c-.35.42-.7.84-1.07,1.24-5.37,6-14.55,13.18-21.73,15.44l-.15,0a.5.5,0,0,1-.34-.13L8.07,48.84a.5.5,0,0,1-.15-.47A42.81,42.81,0,0,1,13.06,36.12ZM16,49.82a1.5,1.5,0,0,0,2.12-.11l3.69-4.09a1.5,1.5,0,1,0-2.23-2L15.88,47.7A1.5,1.5,0,0,0,16,49.82Z" />
  </g>
</g></svg>