<svg xmlns="http://www.w3.org/2000/svg" aria-hidden="true" focusable="false" data-prefix="fas" data-icon="circle-chevron-up" class="svg-inline--fa fa-circle-chevron-up" role="img" viewBox="0 0 15 15" width="15" height="15"><g transform="translate(7.500000 7.500000) scale(0.866667) translate(-7.500000 -7.500000)"><g transform="translate(0.000000 0.000000) scale(0.029297)"><path fill="currentColor" d="M256 512A256 256 0 1 0 256 0a256 256 0 1 0 0 512zM377 271c9.4 9.4 9.4 24.6 0 33.9s-24.6 9.4-33.9 0l-87-87-87 87c-9.4 9.4-24.6 9.4-33.9 0s-9.4-24.6 0-33.9L239 167c9.4-9.4 24.6-9.4 33.9 0L377 271z" /></g></g></svg>