<svg xmlns="http://www.w3.org/2000/svg" aria-hidden="true" focusable="false" data-prefix="fas" data-icon="cube" class="svg-inline--fa fa-cube" role="img" viewBox="0 0 15 15" width="15" height="15"><g transform="translate(7.500000 7.500000) scale(0.866667) translate(-7.500000 -7.500000)"><g transform="translate(0.000000 0.000000) scale(0.029297)"><path fill="currentColor" d="M234.5 5.7c13.9-5 29.1-5 43.1 0l192 68.6C495 83.4 512 107.5 512 134.6V377.4c0 27-17 51.2-42.5 60.3l-192 68.6c-13.9 5-29.1 5-43.1 0l-192-68.6C17 428.6 0 404.5 0 377.4V134.6c0-27 17-51.2 42.5-60.3l192-68.6zM256 66L82.3 128 256 190l173.7-62L256 66zm32 368.6l160-57.1v-188L288 246.6v188z" /></g></g></svg>