<svg xmlns="http://www.w3.org/2000/svg" aria-hidden="true" focusable="false" data-prefix="fas" data-icon="door-closed" class="svg-inline--fa fa-door-closed" role="img" viewBox="0 0 15 15" width="15" height="15"><g transform="translate(7.500000 7.500000) scale(0.866667) translate(-7.500000 -7.500000)"><g transform="translate(0.000000 0.833333) scale(0.026042)"><path fill="currentColor" d="M96 64c0-35.3 28.7-64 64-64H416c35.3 0 64 28.7 64 64V448h64c17.7 0 32 14.3 32 32s-14.3 32-32 32H432 144 32c-17.7 0-32-14.3-32-32s14.3-32 32-32H96V64zM384 288a32 32 0 1 0 0-64 32 32 0 1 0 0 64z" /></g></g></svg>