<svg xmlns="http://www.w3.org/2000/svg" aria-hidden="true" focusable="false" data-prefix="fas" data-icon="video" class="svg-inline--fa fa-video" role="img" viewBox="0 0 15 15" width="15" height="15"><g transform="translate(7.500000 7.500000) scale(0.866667) translate(-7.500000 -7.500000)"><g transform="translate(0.000000 0.833333) scale(0.026042)"><path fill="currentColor" d="M0 128C0 92.7 28.7 64 64 64H320c35.3 0 64 28.7 64 64V384c0 35.3-28.7 64-64 64H64c-35.3 0-64-28.7-64-64V128zM559.1 99.8c10.4 5.6 16.9 16.4 16.9 28.2V384c0 11.8-6.5 22.6-16.9 28.2s-23 5-32.9-1.6l-96-64L416 337.1V320 192 174.9l14.2-9.5 96-64c9.8-6.5 22.4-7.2 32.9-1.6z" /></g></g></svg>