<svg xmlns="http://www.w3.org/2000/svg" aria-hidden="true" focusable="false" data-prefix="fas" data-icon="ice-cream" class="svg-inline--fa fa-ice-cream" role="img" viewBox="0 0 15 15" width="15" height="15"><g transform="translate(7.500000 7.500000) scale(0.866667) translate(-7.500000 -7.500000)"><g transform="translate(0.937500 0.000000) scale(0.029297)"><path fill="currentColor" d="M367.1 160c.6-5.3 .9-10.6 .9-16C368 64.5 303.5 0 224 0S80 64.5 80 144c0 5.4 .3 10.7 .9 16H80c-26.5 0-48 21.5-48 48s21.5 48 48 48h53.5 181H368c26.5 0 48-21.5 48-48s-21.5-48-48-48h-.9zM96 288L200.8 497.7c4.4 8.8 13.3 14.3 23.2 14.3s18.8-5.5 23.2-14.3L352 288H96z" /></g></g></svg>