<svg xmlns="http://www.w3.org/2000/svg" aria-hidden="true" focusable="false" data-prefix="fas" data-icon="signs-post" class="svg-inline--fa fa-signs-post" role="img" viewBox="0 0 15 15" width="15" height="15"><g transform="translate(7.500000 7.500000) scale(0.866667) translate(-7.500000 -7.500000)"><g transform="translate(0.000000 0.000000) scale(0.029297)"><path fill="currentColor" d="M224 32H64C46.3 32 32 46.3 32 64v64c0 17.7 14.3 32 32 32H441.4c4.2 0 8.3-1.7 11.3-4.7l48-48c6.2-6.2 6.2-16.4 0-22.6l-48-48c-3-3-7.1-4.7-11.3-4.7H288c0-17.7-14.3-32-32-32s-32 14.3-32 32zM480 256c0-17.7-14.3-32-32-32H288V192H224v32H70.6c-4.2 0-8.3 1.7-11.3 4.7l-48 48c-6.2 6.2-6.2 16.4 0 22.6l48 48c3 3 7.1 4.7 11.3 4.7H448c17.7 0 32-14.3 32-32V256zM288 480V384H224v96c0 17.7 14.3 32 32 32s32-14.3 32-32z" /></g></g></svg>