<svg xmlns="http://www.w3.org/2000/svg" aria-hidden="true" focusable="false" data-prefix="fas" data-icon="sign-hanging" class="svg-inline--fa fa-sign-hanging" role="img" viewBox="0 0 15 15" width="15" height="15"><g transform="translate(7.500000 7.500000) scale(0.866667) translate(-7.500000 -7.500000)"><g transform="translate(0.000000 0.000000) scale(0.029297)"><path fill="currentColor" d="M96 0c17.7 0 32 14.3 32 32V64l352 0c17.7 0 32 14.3 32 32s-14.3 32-32 32l-352 0V480c0 17.7-14.3 32-32 32s-32-14.3-32-32V128H32C14.3 128 0 113.7 0 96S14.3 64 32 64H64V32C64 14.3 78.3 0 96 0zm96 160H448c17.7 0 32 14.3 32 32V352c0 17.7-14.3 32-32 32H192c-17.7 0-32-14.3-32-32V192c0-17.7 14.3-32 32-32z" /></g></g></svg>