<svg xmlns="http://www.w3.org/2000/svg" aria-hidden="true" focusable="false" data-prefix="fas" data-icon="yin-yang" class="svg-inline--fa fa-yin-yang" role="img" viewBox="0 0 15 15" width="15" height="15"><g transform="translate(7.500000 7.500000) scale(0.866667) translate(-7.500000 -7.500000)"><g transform="translate(0.000000 0.000000) scale(0.029297)"><path fill="currentColor" d="M256 64c53 0 96 43 96 96s-43 96-96 96s-96 43-96 96s43 96 96 96C150 448 64 362 64 256S150 64 256 64zm0 448A256 256 0 1 0 256 0a256 256 0 1 0 0 512zm32-352a32 32 0 1 0 -64 0 32 32 0 1 0 64 0zM224 352a32 32 0 1 1 64 0 32 32 0 1 1 -64 0z" /></g></g></svg>