<svg width="15" height="15" viewBox="0 0 15 15" fill="none" xmlns="http://www.w3.org/2000/svg">
<path fill-rule="evenodd" clip-rule="evenodd" d="M13.9466 8.90516V8.95642L9.9466 11.8136V12.5563L13.9466 9.66256V10.9018L9.51085 14.1278L1 10V8.27912L5.94659 5L13.9466 8.90516ZM6.44659 6L3.21451 8.00006L4.08055 8.50003L7.31263 6.49997L6.44659 6ZM8.17867 6.99994L5.08056 9.00003L5.9466 9.5L9.04471 7.49992L8.17867 6.99994Z" fill="black" style="fill:black;fill-opacity:1;"/>
<path d="M10.3333 4.66667L9.00001 3.33333L10.3333 2" stroke="black" style="stroke:black;stroke-opacity:1;" stroke-linecap="square" stroke-linejoin="round"/>
<path d="M9.33334 2.83337C9.0572 2.83337 8.83334 3.05723 8.83334 3.33337C8.83334 3.60952 9.0572 3.83337 9.33334 3.83337V2.83337ZM11.5 3.33337V2.83337V3.33337ZM11.5 5.50004H11V6.50004H11.5V5.50004ZM9.33334 3.83337H11.5V2.83337H9.33334V3.83337ZM11.5 3.83337C11.721 3.83337 11.933 3.92117 12.0893 4.07745L12.7964 3.37034C12.4526 3.02653 11.9862 2.83337 11.5 2.83337V3.83337ZM12.0893 4.07745C12.2455 4.23373 12.3333 4.44569 12.3333 4.66671H13.3333C13.3333 4.18048 13.1402 3.71416 12.7964 3.37034L12.0893 4.07745ZM12.3333 4.66671C12.3333 4.88772 12.2455 5.09968 12.0893 5.25596L12.7964 5.96307C13.1402 5.61925 13.3333 5.15294 13.3333 4.66671H12.3333ZM12.0893 5.25596C11.933 5.41224 11.721 5.50004 11.5 5.50004V6.50004C11.9862 6.50004 12.4526 6.30689 12.7964 5.96307L12.0893 5.25596Z" fill="black" style="fill:black;fill-opacity:1;"/>
</svg>
