<svg width="15" height="15" viewBox="0 0 15 15" fill="none" xmlns="http://www.w3.org/2000/svg">
<path fill-rule="evenodd" clip-rule="evenodd" d="M8.95362 1.13338C10.3073 0.625601 11.7497 1.63066 11.7497 3.08168V4.62364C11.7497 4.99845 11.9493 5.34466 12.2729 5.53142L12.9537 5.92428C14.4156 6.76791 14.3278 8.91437 12.8019 9.63481L11.174 10.4034C10.9076 10.5292 10.7066 10.7622 10.6206 11.0448L10.1724 12.517C9.75596 13.8848 8.12684 14.4402 6.96716 13.6097L5.66945 12.6804C4.72888 12.0069 3.65341 11.5473 2.51792 11.3336C0.934362 11.0356 0.452385 8.99388 1.73425 8.01387L2.82957 7.17648C3.17244 6.91435 3.3194 6.46743 3.19937 6.05183L2.72252 4.40076C2.33566 3.06127 3.33648 1.7235 4.72543 1.7235H5.70097C6.81159 1.7235 7.91322 1.52363 8.95362 1.13338ZM8.63337 4.52658C8.89638 4.42788 9.18262 4.6222 9.18262 4.91229V5.81537C9.18262 6.32252 9.45248 6.79211 9.89204 7.04586L10.2906 7.27595L10.7906 6.40991L10.392 6.17982C10.2632 6.10544 10.1826 5.96674 10.1826 5.81537V4.91229C10.1826 3.93057 9.20508 3.24396 8.28204 3.59033L8.63337 4.52658Z" fill="black" style="fill:black;fill-opacity:1;"/>
</svg>
