<svg xmlns="http://www.w3.org/2000/svg" width="15" height="15" viewBox="0 0 15 15" fill="none">
<g transform="translate(7.500000 7.500000) scale(0.866667) translate(-7.500000 -8.000000)"><path d="M5.67622 9.55041C5.92992 9.56683 6.17837 9.6338 6.40674 9.74799C6.68396 9.8866 6.92326 10.0906 7.10399 10.3424C7.19006 10.4623 7.30403 10.5595 7.43606 10.6255C7.56808 10.6915 7.71419 10.7244 7.86177 10.7213C7.86875 10.7211 7.87573 10.7211 7.88271 10.7213C8.03029 10.7244 8.1764 10.6915 8.30843 10.6255C8.44045 10.5595 8.55442 10.4623 8.6405 10.3424C8.82122 10.0906 9.06053 9.8866 9.33774 9.74799C9.61184 9.61095 9.91484 9.54191 10.2211 9.54665C10.5274 9.54191 10.8304 9.61095 11.1045 9.74799C11.3818 9.8866 11.6211 10.0906 11.8018 10.3424C11.8789 10.4498 11.9783 10.5389 12.0931 10.6038L13 10C13.1136 9.9316 13.1953 9.82086 13.2273 9.69215C13.2592 9.56344 13.2387 9.42732 13.1703 9.31373L11.6143 3.27437C11.5544 3.10469 11.4078 2.98035 11.2306 2.9488C11.0534 2.91724 10.873 2.98335 10.7581 3.12188L10.6184 3.2903L5.67622 9.55041Z" fill="black" style="fill:black;fill-opacity:1;" />
<path d="M8.30542 4.60626L5.48415 4.31082C5.31788 4.2934 5.15391 4.36024 5.04719 4.48893L3.61882 6.21135L1.69403 4.61516C1.48147 4.43889 1.16625 4.4683 0.98998 4.68087L0.295959 5.51776L1.06571 6.1561L1.44056 5.70408L2.98048 6.98111L2.04839 8.10507C1.87212 8.31763 1.90154 8.63285 2.1141 8.80912L3.85053 10.2491L8.30542 4.60626Z" fill="black" style="fill:black;fill-opacity:1;" />
<path d="M5.08716 11.6424C5.21919 11.5764 5.3653 11.5435 5.51288 11.5466C5.51986 11.5468 5.52684 11.5468 5.53382 11.5466C5.6814 11.5435 5.82751 11.5764 5.95953 11.6424C6.09156 11.7084 6.20553 11.8056 6.2916 11.9255C6.47233 12.1773 6.71163 12.3813 6.98885 12.5199C7.26294 12.657 7.56594 12.726 7.87225 12.7213C8.17855 12.726 8.48155 12.657 8.75565 12.5199C9.03286 12.3813 9.27217 12.1773 9.45289 11.9255C9.53897 11.8056 9.65294 11.7084 9.78496 11.6424C9.91699 11.5764 10.0631 11.5435 10.2107 11.5466C10.2177 11.5468 10.2246 11.5468 10.2316 11.5466C10.3792 11.5435 10.5253 11.5764 10.6573 11.6424C10.7894 11.7084 10.9033 11.8056 10.9894 11.9255C11.1701 12.1773 11.4094 12.3813 11.6866 12.5199C11.9607 12.657 12.2637 12.726 12.57 12.7213C12.8764 12.726 13.1794 12.657 13.4534 12.5199C13.7307 12.3813 13.97 12.1773 14.1507 11.9255L14.4422 11.5193L13.6299 10.9362L13.3383 11.3424C13.2522 11.4623 13.1383 11.5595 13.0062 11.6255C12.8742 11.6915 12.7281 11.7244 12.5805 11.7213C12.5735 11.7211 12.5666 11.7211 12.5596 11.7213C12.412 11.7244 12.2659 11.6915 12.1339 11.6255C12.0018 11.5595 11.8879 11.4623 11.8018 11.3424C11.6211 11.0906 11.3818 10.8866 11.1045 10.748C10.8305 10.6109 10.5275 10.5419 10.2211 10.5466C9.91484 10.5419 9.61184 10.6109 9.33775 10.748C9.06053 10.8866 8.82123 11.0906 8.6405 11.3424C8.55443 11.4623 8.44046 11.5595 8.30843 11.6255C8.17641 11.6915 8.0303 11.7244 7.88272 11.7213C7.87574 11.7211 7.86876 11.7211 7.86178 11.7213C7.7142 11.7244 7.56809 11.6915 7.43606 11.6255C7.30404 11.5595 7.19007 11.4623 7.10399 11.3424C6.92327 11.0906 6.68396 10.8866 6.40675 10.748C6.13266 10.6109 5.82965 10.5419 5.52335 10.5466C5.21704 10.5419 4.91404 10.6109 4.63995 10.748C4.36274 10.8866 4.12343 11.0906 3.9427 11.3424C3.85663 11.4623 3.74266 11.5595 3.61063 11.6255C3.47861 11.6915 3.3325 11.7244 3.18492 11.7213C3.17794 11.7211 3.17096 11.7211 3.16398 11.7213C3.0164 11.7244 2.87029 11.6915 2.73826 11.6255C2.60624 11.5595 2.49227 11.4623 2.40619 11.3424L2.11464 10.9362L1.30225 11.5193L1.5938 11.9255C1.77453 12.1773 2.01383 12.3813 2.29105 12.5199C2.56514 12.657 2.86814 12.726 3.17445 12.7213C3.48075 12.726 3.78376 12.657 4.05785 12.5199C4.33506 12.3813 4.57437 12.1773 4.75509 11.9255C4.84117 11.8056 4.95514 11.7084 5.08716 11.6424Z" fill="black" style="fill:black;fill-opacity:1;" />
</g></svg>