<svg width="15" height="15" viewBox="0 0 15 15" fill="none" xmlns="http://www.w3.org/2000/svg">
<path fill-rule="evenodd" clip-rule="evenodd" d="M5.38232 5.8H5L5.58254 4H6.04231L6.62403 5.8H6.24171L6.11677 5.38955H5.5075L5.38232 5.8ZM6.02635 5.09248L5.81902 4.41133H5.80583L5.5981 5.09248H6.02635Z" fill="black" style="fill:black;fill-opacity:1;"/>
<path d="M6.55667 4.31377V4H7.94257V4.31377H7.42595V5.8H7.07329V4.31377H6.55667Z" fill="black" style="fill:black;fill-opacity:1;"/>
<path d="M8.6108 4H8.17081V5.8H8.51687V4.62402H8.53088L8.96758 5.79121H9.20323L9.63993 4.62842H9.65394V5.8H10V4H9.56001L9.09529 5.20937H9.07552L8.6108 4Z" fill="black" style="fill:black;fill-opacity:1;"/>
<path fill-rule="evenodd" clip-rule="evenodd" d="M12 1H3V14H12V1ZM10.5 2.5H4.5V7H10.5V2.5ZM9 8.75H10.5V8.25H9V8.75ZM4.75 8.79999C4.88807 8.79999 5 8.68806 5 8.54999C5 8.41192 4.88807 8.29999 4.75 8.29999C4.61193 8.29999 4.5 8.41192 4.5 8.54999C4.5 8.68806 4.61193 8.79999 4.75 8.79999ZM5.75 8.79999C5.88807 8.79999 6 8.68806 6 8.54999C6 8.41192 5.88807 8.29999 5.75 8.29999C5.61193 8.29999 5.5 8.41192 5.5 8.54999C5.5 8.68806 5.61193 8.79999 5.75 8.79999ZM6.75 8.79999C6.88807 8.79999 7 8.68806 7 8.54999C7 8.41192 6.88807 8.29999 6.75 8.29999C6.61193 8.29999 6.5 8.41192 6.5 8.54999C6.5 8.68806 6.61193 8.79999 6.75 8.79999ZM4.75 9.79999C4.88807 9.79999 5 9.68806 5 9.54999C5 9.41192 4.88807 9.29999 4.75 9.29999C4.61193 9.29999 4.5 9.41192 4.5 9.54999C4.5 9.68806 4.61193 9.79999 4.75 9.79999ZM5.75 9.79999C5.88807 9.79999 6 9.68806 6 9.54999C6 9.41192 5.88807 9.29999 5.75 9.29999C5.61193 9.29999 5.5 9.41192 5.5 9.54999C5.5 9.68806 5.61193 9.79999 5.75 9.79999ZM6.75 9.79999C6.88807 9.79999 7 9.68806 7 9.54999C7 9.41192 6.88807 9.29999 6.75 9.29999C6.61193 9.29999 6.5 9.41192 6.5 9.54999C6.5 9.68806 6.61193 9.79999 6.75 9.79999ZM4.75 10.8C4.88807 10.8 5 10.6881 5 10.55C5 10.4119 4.88807 10.3 4.75 10.3C4.61193 10.3 4.5 10.4119 4.5 10.55C4.5 10.6881 4.61193 10.8 4.75 10.8ZM5.75 10.8C5.88807 10.8 6 10.6881 6 10.55C6 10.4119 5.88807 10.3 5.75 10.3C5.61193 10.3 5.5 10.4119 5.5 10.55C5.5 10.6881 5.61193 10.8 5.75 10.8ZM6.75 10.8C6.88807 10.8 7 10.6881 7 10.55C7 10.4119 6.88807 10.3 6.75 10.3C6.61193 10.3 6.5 10.4119 6.5 10.55C6.5 10.6881 6.61193 10.8 6.75 10.8Z" fill="black" style="fill:black;fill-opacity:1;"/>
</svg>
