<svg xmlns="http://www.w3.org/2000/svg" viewBox="0 0 15 15" xml:space="preserve" width="15" height="15">
  <g transform="translate(0.000000 0.000000) scale(0.029297)"><g>
    <path d="M422.788,77.576c-38.499,0-69.818,31.32-69.818,69.818v93.091c0,12.833-10.44,23.273-23.273,23.273h-35.033c2.583-7.284,4.003-15.115,4.003-23.273c0-17.869-6.755-34.183-17.835-46.545c11.081-12.362,17.835-28.677,17.835-46.545c0-8.158-1.42-15.988-4.003-23.273h4.003c12.853,0,23.273-10.42,23.273-23.273c0-12.853-10.42-23.273-23.273-23.273h-12.172l18.263-45.659c2.869-7.17,1.994-15.295-2.337-21.692C298.094,3.831,290.873,0,283.152,0H174.545c-7.723,0-14.943,3.831-19.271,10.224c-4.33,6.395-5.204,14.521-2.337,21.692l18.264,45.659H159.03c-12.853,0-23.273,10.42-23.273,23.273c0,12.853,10.42,23.273,23.273,23.273h4.003c-2.583,7.284-4.003,15.115-4.003,23.273c0,17.869,6.754,34.183,17.835,46.545c-11.081,12.362-17.835,28.677-17.835,46.545c0,8.158,1.42,15.988,4.003,23.273H128c-12.853,0-23.273,10.42-23.273,23.273c0,12.853,10.42,23.273,23.273,23.273h4.059c-17.081,21.268-27.331,48.24-27.331,77.576s10.251,56.309,27.331,77.576H42.667c-12.853,0-23.273,10.42-23.273,23.273c0,12.853,10.42,23.273,23.273,23.273h186.182H415.03c12.853,0,23.273-10.42,23.273-23.273c0-12.853-10.42-23.273-23.273-23.273h-89.392c17.081-21.267,27.331-48.24,27.331-77.576c0-29.336-10.251-56.308-27.331-77.576h4.059c38.498,0,69.818-31.32,69.818-69.818v-93.091c0-12.833,10.439-23.273,23.273-23.273c12.833,0,23.273,10.44,23.273,23.273v240.485c0,12.853,10.42,23.273,23.273,23.273c12.853,0,23.273-10.42,23.273-23.273V147.394C492.606,108.896,461.286,77.576,422.788,77.576z" />
  </g>
</g></svg>