<svg xmlns="http://www.w3.org/2000/svg" viewBox="0 0 15 15" width="15" height="15" xml:space="preserve">
  <g transform="translate(0 0) scale(0.0305176)">
    <path d="M430.08,40.96c-33.874,0-61.44,27.566-61.44,61.44v81.92h-40.96V81.92C327.68,36.741,290.939,0,245.76,0c-45.179,0-81.92,36.741-81.92,81.92v184.32h-40.96v-81.92c0-33.874-27.566-61.44-61.44-61.44S0,150.446,0,184.32v184.32c0,11.305,9.175,20.48,20.48,20.48h143.36v61.44H102.4c-11.305,0-20.48,9.175-20.48,20.48c0,11.305,9.175,20.48,20.48,20.48h81.92H307.2h81.92c11.305,0,20.48-9.175,20.48-20.48c0-11.305-9.175-20.48-20.48-20.48h-61.44V307.2h143.36c11.325,0,20.48-9.175,20.48-20.48V102.4C491.52,68.526,463.954,40.96,430.08,40.96z" fill="#000000"/>
  </g>
</svg>
