<svg xmlns="http://www.w3.org/2000/svg" viewBox="0 0 15 15" width="15" height="15" xml:space="preserve">
  <g transform="translate(0 0) scale(0.0292969)">
    <polygon points="170.669,512.004 341.335,512.004 256.002,351.194" fill="#000000"/>
    <path d="M490.669,469.338h-29.483L279.853,106.671l37.909-75.797c5.269-10.539,0.981-23.339-9.557-28.629c-10.539-5.248-23.317-0.981-28.629,9.557L256.002,58.97l-23.573-47.168c-5.291-10.539-18.091-14.805-28.629-9.557c-10.539,5.291-14.827,18.091-9.557,28.629l37.909,75.797L50.818,469.338H21.335c-11.797,0-21.333,9.557-21.333,21.333s9.536,21.333,21.333,21.333h103.381L236.503,290.01c3.435-7.701,11.051-12.672,19.499-12.672c8.448,0,16.064,4.971,19.499,12.672l111.787,221.995h103.381c11.797,0,21.333-9.557,21.333-21.333S502.466,469.338,490.669,469.338z" fill="#000000"/>
  </g>
</svg>
