<svg xmlns="http://www.w3.org/2000/svg" viewBox="0 0 15 15" xml:space="preserve" width="15" height="15">
  <g transform="translate(0.000000 0.000000) scale(0.029297)"><g>
    <path d="M179.333,159.385l69.14-91.681c12.092-15.486,9.314-38.048-6.173-50.138c-15.485-12.092-38.048-9.314-50.138,6.171l-77.125,105.505c-8.986,12.293-13.829,27.124-13.829,42.35v140.805l-17.056-17.054L8.378,371.119L139.22,501.961l75.775-75.776l-12.81-12.811l29.015-24.87c0.025-0.021,0.05-0.042,0.075-0.064c4.434-3.813,6.864-9.458,6.864-15.305v-83.281v-95.256c0-10.147-8.505-18.344-18.761-17.838c-9.593,0.473-16.96,8.75-16.96,18.356v85.211h-35.721v-83.2C166.698,183.507,171.133,170.26,179.333,159.385z" fill="#000000" />
  </g>
  <g>
    <path d="M427.845,295.344l-17.054,17.054V171.593c0-15.225-4.843-30.057-13.829-42.35L319.838,23.738c-12.092-15.485-34.653-18.263-50.139-6.171c-15.485,12.09-18.263,34.652-6.171,50.138l69.139,91.681c8.199,10.875,12.636,24.122,12.636,37.742v83.2h-35.721v-85.211c0-9.605-7.366-17.884-16.96-18.357c-10.255-0.506-18.761,7.691-18.761,17.838h-0.001v95.255v83.281c0,5.848,2.43,11.493,6.864,15.305c0.025,0.023,0.05,0.043,0.075,0.064l29.015,24.87l-12.81,12.811l75.775,75.776l130.842-130.84L427.845,295.344z" fill="#000000" />
  </g>
  <g>
    <rect y="107.281" width="59.535" height="35.721" fill="#000000" />
  </g>
  <g>
    <rect x="25.869" y="14.007" transform="matrix(0.3333 -0.9428 0.9428 0.3333 -12.1164 70.412)" width="35.72" height="59.534" fill="#000000" />
  </g>
  <g>
    <rect x="452.465" y="107.281" width="59.535" height="35.721" fill="#000000" />
  </g>
  <g>
    <rect x="438.486" y="25.919" transform="matrix(0.9428 -0.3333 0.3333 0.9428 12.1837 158.5749)" width="59.533" height="35.719" fill="#000000" />
  </g>
</g></svg>