<?xml version='1.0' encoding='utf-8'?>
<svg xmlns="http://www.w3.org/2000/svg" width="15" height="15" viewBox="0 0 15 15" version="1.1"><g transform="translate(0.000000 0.000000) scale(0.500000)"><path d="M15.1,11c1.8,0,3.3,1.3,3.5,3c0.2,1.7-1.3,3-3.4,3s-3.6-1.3-3.5-3S13.3,11,15.1,11z M19.7,9l1.9,11.1  C21.3,20,21,20,20.5,20c-1.5,0.1-2.7,1.1-2.8,2.2c0,0.3,0,0.6,0.1,0.8h-4.8c0.1-0.2,0.1-0.5,0.1-0.8c-0.2-1.1-1.4-2.1-2.9-2.2  c-0.4,0-0.8,0-1.1,0L10.5,9H8L5.4,23c-0.3,1.7,0,3,2.5,3h15.2c2.5,0,2.7-1.3,2.3-3L22,9H19.7z M26,4H4C3.4,4,3,4.4,3,5v5  c0,0.6,0.4,1,1,1h1.5l0.9-4h17.1l1.2,4H26c0.6,0,1-0.4,1-1V5C27,4.4,26.6,4,26,4z" /></g></svg>