<svg xmlns="http://www.w3.org/2000/svg" viewBox="0 0 15 15" width="15" height="15" xml:space="preserve">
  <g transform="translate(0 0) scale(0.0292969)">
    <path d="M453.002,4.579c-10.219-6.037-22.528-6.165-33.643-0.021l-56.597,34.389L307.893,4.963c-10.197-6.315-23.061-6.613-33.6-0.789c-10.475,5.845-16.981,16.939-16.981,28.949v205.184L362.762,315l106.56-76.096V33.123C469.322,21.283,463.221,10.595,453.002,4.579z M362.655,255.971c-11.776,0-21.333-9.557-21.333-21.333s9.557-21.333,21.333-21.333s21.333,9.557,21.333,21.333S374.431,255.971,362.655,255.971z M362.655,170.638c-11.776,0-21.333-9.557-21.333-21.333s9.557-21.333,21.333-21.333s21.333,9.557,21.333,21.333S374.431,170.638,362.655,170.638z" fill="#000000"/>
    <path d="M373.045,359.679c-0.661,0.363-1.301,0.683-1.984,0.981c-2.709,1.173-5.525,1.984-8.384,1.984h-0.021h-0.021c-2.88,0-5.717-0.811-8.448-2.027c-0.704-0.299-1.344-0.619-2.005-1.024c-0.683-0.384-1.429-0.576-2.069-1.045l-101.205-73.6c-26.56,68.203-54.699,99.029-90.88,99.029H98.57c-30.827,0-55.915,25.088-55.915,55.915c0,27.541,19.733,50.752,46.933,55.189l63.616,10.368c12.075,3.456,25.195,5.227,39.019,5.227c54.528,0,91.669-49.877,109.525-73.856c2.432-3.264,4.501-6.08,6.272-8.235c1.6-1.941,10.347-1.941,14.08-1.941h19.221v37.547c0,26.347,21.44,47.787,47.787,47.787h32.427c26.347,0,47.787-21.44,47.787-47.787v-80.213h-0.128c0.021-0.448,0.128-0.832,0.128-1.28v-91.371l-94.272,67.349C374.431,359.124,373.706,359.295,373.045,359.679z M383.989,426.644h41.387h1.28v37.547c0,2.816-2.283,5.12-5.12,5.12h-32.427c-2.837,0-5.12-2.304-5.12-5.12V426.644z" fill="#000000"/>
  </g>
</svg>
