<svg width="15" height="15" fill="#000000" version="1.1" id="Layer_1" xmlns="http://www.w3.org/2000/svg" xmlns:xlink="http://www.w3.org/1999/xlink" viewBox="0 0 512 512" xml:space="preserve"><g id="SVGRepo_bgCarrier" stroke-width="0"></g><g id="SVGRepo_tracerCarrier" stroke-linecap="round" stroke-linejoin="round"></g><g id="SVGRepo_iconCarrier"> <g> <g> <polygon points="256,240.995 223.495,256 256,271.005 288.505,256 "></polygon> </g> </g> <g> <g> <path d="M133.565,172.522v166.957h244.87V172.522H133.565z M335.342,271.157l-72.348,33.391c-2.217,1.027-4.608,1.538-6.994,1.538 c-2.386,0-4.777-0.511-6.994-1.538l-72.348-33.391c-5.914-2.728-9.701-8.646-9.701-15.157s3.788-12.429,9.701-15.157 l72.348-33.391c4.434-2.055,9.554-2.055,13.989,0l72.348,33.391c5.914,2.728,9.701,8.646,9.701,15.157 S341.256,268.429,335.342,271.157z"></path> </g> </g> <g> <g> <path d="M495.304,172.522c9.223,0,16.696-7.473,16.696-16.696c0-9.223-7.473-16.696-16.696-16.696h-16.696v-33.391h16.696 c9.223,0,16.696-7.473,16.696-16.696c0-9.223-7.473-16.696-16.696-16.696h-33.391H61.217h-11.13H16.696 C7.473,72.348,0,79.821,0,89.044c0,9.223,7.473,16.696,16.696,16.696h16.696v33.391H16.696C7.473,139.13,0,146.603,0,155.826 c0,9.223,7.473,16.696,16.696,16.696h16.696v33.391H16.696C7.473,205.913,0,213.386,0,222.609s7.473,16.696,16.696,16.696h16.696 v33.391H16.696C7.473,272.696,0,280.169,0,289.391c0,9.223,7.473,16.696,16.696,16.696h16.696v33.391H16.696 C7.473,339.478,0,346.951,0,356.174c0,9.223,7.473,16.696,16.696,16.696h16.696v33.391H16.696C7.473,406.261,0,413.734,0,422.957 c0,9.223,7.473,16.696,16.696,16.696h33.391h11.13h400.696h33.391c9.223,0,16.696-7.473,16.696-16.696 c0-9.223-7.473-16.696-16.696-16.696h-16.696V372.87h16.696c9.223,0,16.696-7.473,16.696-16.696 c0-9.223-7.473-16.696-16.696-16.696h-16.696v-33.391h16.696c9.223,0,16.696-7.473,16.696-16.696 c0-9.223-7.473-16.696-16.696-16.696h-16.696v-33.391h16.696c9.223,0,16.696-7.473,16.696-16.696s-7.473-16.696-16.696-16.696 h-16.696v-33.391H495.304z M411.826,356.174c0,9.223-7.473,16.696-16.696,16.696H116.87c-9.223,0-16.696-7.473-16.696-16.696 V155.826c0-9.223,7.473-16.696,16.696-16.696H395.13c9.223,0,16.696,7.473,16.696,16.696V356.174z"></path> </g> </g> </g></svg>
