<svg xmlns="http://www.w3.org/2000/svg" version="1.1" x="0" y="0" width="15" height="15" viewBox="0 0 15 15">
  <g transform="translate(-1.500000 0.000000) scale(0.300000)"><defs>
    <linearGradient id="Gradient_1" gradientUnits="userSpaceOnUse" x1="-720.5" y1="157.987" x2="-722" y2="152.362" gradientTransform="matrix(1, 0, 0, 1, 760, -132.362)">
      <stop offset="0" stop-color="#444444" />
      <stop offset="1" stop-color="#000000" />
    </linearGradient>
  </defs>
  <g>
    <g>
      <path d="M33,14 L24,36 L35,36 L36.156,28.375 C34.72,27.032 33,25.193 33,24 L33,22 L36.906,23.5 L38.344,14 L33,14 z" fill="#000000" />
      <path d="M22,36 L31.359,14 L26,14 L11,36 z" fill="#000000" />
      <path d="M31.5,33 L32.75,29 L29.75,29 L28.5,33 z M23.5,21 L25.5,17.5 L28.5,17.5 L26.5,21 z" fill="currentColor" id="highway-trunk-link-stroke3" />
    </g>
    <path d="M41,36 L41,32 C41,27.548 33,26.172 33,22 C33,19 33.375,14 33.375,14 L38.375,14 C38.375,14 38,17.996 38,20 C38,22 46.595,24.072 48,28 L50,36 z" fill="url(#Gradient_1)" />
  </g>
</g></svg>