<?xml version="1.0" encoding="UTF-8"?>
<svg width="15" height="15" viewBox="0 0 15 15" xmlns="http://www.w3.org/2000/svg" id="waterway-stream">
  <path d="M6.5 10C6.5 10 6.2 9.2 6.3 8.8C6.4 8.3 7.1 7.5 7.1 7.5C7.1 7.5 7.8 6.7 7.9 6.2C8 5.8 7.7 5 7.7 5C7.7 5 7.4 4.2 7.5 3.8C7.6 3.3 8.3 2.5 8.3 2.5C8.3 2.5 9 1.7 9.1 1.2C9.2 0.8 8.9 0 8.9 0L10.5 0C10.5 0 11.2 0.8 11.3 1.2C11.4 1.6 11.1 2.5 11.1 2.5C11.1 2.5 10.8 3.3 10.9 3.8C11 4.3 11.7 5 11.7 5C11.7 5 12.4 5.8 12.5 6.2C12.6 6.6 12.3 7.5 12.3 7.5C12.3 7.5 12 8.3 12.1 8.8C12.2 9.3 12.9 10 12.9 10Z"/>
</svg>
