<svg width="15" height="15" version="1.1" id="Capa_1" xmlns="http://www.w3.org/2000/svg" xmlns:xlink="http://www.w3.org/1999/xlink" x="0px" y="0px"
	 viewBox="0 0 106.048 106.048" style="enable-background:new 0 0 106.048 106.048;"
	 xml:space="preserve">
<g>
  <rect x="12" y="12" width="82" height="82" rx="8" ry="8" fill="#FFFFFF"/>
  <path style="fill:#010002;" d="M84.838,0H21.209C9.543,0,0,9.543,0,21.209v63.629c0,11.666,9.543,21.21,21.209,21.21h63.628
		c11.667,0,21.21-9.544,21.21-21.21V21.209C106.048,9.543,96.505,0,84.838,0z M91.756,72.172L57.203,60.936v18.538l7.472,7.498v5.82
		l-11.646-3.537l-11.871,3.537v-5.82l7.702-7.498V60.936L14.294,72.172v-8.522l34.566-21.66V17.424c0-1.113,0.389-2.094,1.147-2.918
		c0.769-0.836,1.701-1.25,2.814-1.25h0.207c1.103,0,2.097,0.414,2.92,1.25c0.823,0.824,1.254,1.805,1.254,2.918v24.565l34.553,21.66
		V72.172z"/>
</g>
<g>
</g>
<g>
</g>
<g>
</g>
<g>
</g>
<g>
</g>
<g>
</g>
<g>
</g>
<g>
</g>
<g>
</g>
<g>
</g>
<g>
</g>
<g>
</g>
<g>
</g>
<g>
</g>
<g>
</g>
</svg>
