<svg width="24" height="24" version="1.1" id="Capa_1" xmlns="http://www.w3.org/2000/svg" xmlns:xlink="http://www.w3.org/1999/xlink" x="0px" y="0px"
	 viewBox="0 0 106.048 106.048" style="enable-background:new 0 0 106.048 106.048;"
	 xml:space="preserve">
<g>
	<path style="fill:#010002;" d="M66.176,79.256l3.501,5.209H36.379l3.49-5.209H66.176z M106.048,21.209v63.629
		c0,11.666-9.543,21.21-21.21,21.21H21.209C9.543,106.048,0,96.504,0,84.838V21.209C0,9.543,9.543,0,21.209,0h63.628
		C96.505,0,106.048,9.543,106.048,21.209z M82.788,92.792L69.407,72.943c2.568-0.398,4.691-1.589,6.38-3.536
		c1.698-1.947,2.548-4.257,2.548-6.923V23.713c0-2.869-1.025-5.331-3.076-7.387c-2.061-2.053-4.577-3.07-7.539-3.07H38.331
		c-2.98,0-5.489,1.018-7.54,3.07c-2.053,2.056-3.076,4.518-3.076,7.387v38.771c0,2.666,0.87,4.996,2.62,6.995
		c1.737,1.999,3.842,3.153,6.304,3.459L23.263,92.792h7.529l1.282-1.906h41.901l1.284,1.906H82.788z M42.181,66.481
		c0.922-0.927,1.388-2.097,1.388-3.536c0-1.331-0.466-2.486-1.388-3.459c-0.935-0.974-2.063-1.461-3.389-1.461
		c-1.437,0-2.607,0.492-3.542,1.461c-0.932,0.983-1.388,2.128-1.388,3.459c0,1.439,0.456,2.609,1.388,3.536
		c0.935,0.922,2.105,1.388,3.542,1.388C40.117,67.869,41.246,67.403,42.181,66.481z M39.095,42.015h27.848
		c1.439,0,2.642-0.455,3.614-1.377c0.989-0.922,1.471-2.1,1.471-3.542V24.689c0-1.439-0.486-2.615-1.471-3.544
		c-0.973-0.922-2.175-1.383-3.614-1.383H39.095c-1.437,0-2.62,0.461-3.531,1.383c-0.922,0.93-1.391,2.11-1.391,3.544v12.407
		c0,1.437,0.469,2.62,1.391,3.542C36.475,41.56,37.658,42.015,39.095,42.015z M67.254,58.016c-1.337,0-2.465,0.497-3.387,1.465
		c-0.922,0.979-1.388,2.129-1.388,3.459c0,1.435,0.466,2.605,1.388,3.537c0.922,0.922,2.05,1.388,3.387,1.388
		c1.434,0,2.619-0.466,3.531-1.388c0.922-0.932,1.388-2.103,1.388-3.537c0-1.33-0.466-2.48-1.388-3.459
		C69.873,58.513,68.683,58.016,67.254,58.016z"/>
</g>
<g>
</g>
<g>
</g>
<g>
</g>
<g>
</g>
<g>
</g>
<g>
</g>
<g>
</g>
<g>
</g>
<g>
</g>
<g>
</g>
<g>
</g>
<g>
</g>
<g>
</g>
<g>
</g>
<g>
</g>
</svg>
