<svg width="15" height="15" version="1.1" id="Capa_1" xmlns="http://www.w3.org/2000/svg" xmlns:xlink="http://www.w3.org/1999/xlink" x="0px" y="0px"
	 viewBox="0 0 106.048 106.048" style="enable-background:new 0 0 106.048 106.048;"
	 xml:space="preserve">
<g>
  <rect x="4" y="4" width="98" height="98" rx="14" ry="14" fill="#FFFFFF"/>
  <path style="fill:#010002;" d="M57.104,37.87h-8.163v-3.446h8.163V37.87z M70.578,34.419h-8.172v3.446h8.172V34.419z M35.198,64.84
		c0.471,1.367,2.051,2.501,3.508,2.501h28.635c1.455,0,3.039-1.134,3.505-2.511l3.589-10.429c0.471-1.378-0.337-2.507-1.792-2.507
		H33.404c-1.453,0-2.263,1.129-1.792,2.507L35.198,64.84z M43.633,34.419h-8.166v3.446h8.166V34.419z M106.048,21.209v63.629
		c0,11.666-9.543,21.21-21.21,21.21H21.209C9.543,106.048,0,96.504,0,84.838V21.209C0,9.543,9.543,0,21.209,0h63.628
		C96.505,0,106.048,9.543,106.048,21.209z M22.084,54.795L32.7,81.783c0.821,0.342,1.696,0.559,2.688,0.585
		c3.526-0.088,5.882-2.134,7.747-6.648c0.039-0.135,0.09-0.243,0.145-0.353c0.191-0.279,0.456-0.466,0.774-0.466
		s0.588,0.187,0.785,0.466h0.005c0.016,0.057,0.031,0.067,0.042,0.109c0.034,0.072,0.075,0.108,0.096,0.186
		c1.903,4.671,4.306,6.737,7.993,6.737h0.025c3.65,0,6.053-2.066,7.948-6.68c0.036-0.135,0.094-0.243,0.146-0.353
		c0.186-0.279,0.455-0.466,0.771-0.466c0.315,0,0.595,0.187,0.781,0.466h0.011c0.011,0.057,0.041,0.067,0.052,0.109
		c0.031,0.072,0.062,0.108,0.083,0.186c1.874,4.594,4.246,6.659,7.818,6.722c1.01-0.016,1.9-0.243,2.734-0.596L83.963,54.8
		c1.057-3.278-0.347-7.609-3.133-9.624l-3.189-2.323L72.515,29.38h-11.78v-7.715H45.303v7.715H33.521l-5.126,13.484l-3.182,2.312
		C22.429,47.19,21.028,51.522,22.084,54.795z M100.715,85.17c-0.994-1.078-1.875-2.434-2.657-4.329
		c-0.015-0.073-0.046-0.114-0.067-0.187c-0.021-0.041-0.041-0.052-0.062-0.104h-0.011c-0.176-0.279-0.445-0.467-0.776-0.467
		c-0.321,0-0.591,0.188-0.776,0.467c-0.067,0.108-0.114,0.217-0.146,0.347c-1.896,4.619-4.303,6.685-7.953,6.685h-0.031
		c-3.672,0-6.079-2.076-7.985-6.741c-0.025-0.073-0.051-0.114-0.072-0.187c-0.025-0.041-0.052-0.052-0.062-0.104h-0.021
		c-0.165-0.279-0.445-0.467-0.771-0.467s-0.585,0.188-0.771,0.467c-0.072,0.108-0.113,0.217-0.14,0.347
		c-1.88,4.531-4.251,6.597-7.804,6.664c-3.572-0.067-5.934-2.123-7.818-6.726c-0.021-0.078-0.052-0.109-0.083-0.188
		c-0.011-0.041-0.041-0.051-0.052-0.108h-0.011c-0.187-0.279-0.466-0.466-0.781-0.466c-0.316,0-0.586,0.187-0.771,0.466
		c-0.062,0.114-0.114,0.218-0.146,0.353c-1.896,4.619-4.298,6.68-7.948,6.68h-0.025c-3.688,0-6.085-2.071-7.993-6.736
		c-0.021-0.078-0.062-0.109-0.096-0.188c-0.01-0.041-0.026-0.051-0.042-0.108l0,0c-0.197-0.279-0.471-0.466-0.784-0.466
		c-0.324,0-0.583,0.187-0.774,0.466c-0.06,0.114-0.111,0.218-0.142,0.353c-1.867,4.516-4.223,6.565-7.749,6.648
		c-3.537-0.083-5.89-2.144-7.768-6.711c-0.021-0.072-0.046-0.113-0.08-0.187c-0.016-0.041-0.036-0.052-0.042-0.104h-0.015
		c-0.176-0.284-0.451-0.466-0.774-0.466c-0.329,0-0.606,0.182-0.779,0.466h-0.01c-0.07,0.108-0.111,0.218-0.135,0.347
		c-1.903,4.619-4.321,6.686-7.974,6.686h-0.021c-3.674,0-6.077-2.076-7.984-6.742c-0.026-0.072-0.055-0.113-0.085-0.187
		c-0.021-0.041-0.036-0.052-0.042-0.104H9.654c-0.168-0.284-0.435-0.466-0.774-0.466c-0.311,0-0.587,0.182-0.774,0.466
		c-0.067,0.108-0.111,0.218-0.137,0.347c-0.769,1.859-1.655,3.205-2.636,4.272c0.181,8.627,7.218,15.586,15.876,15.586h63.628
		C93.496,100.745,100.533,93.786,100.715,85.17z"/>
</g>
<g>
</g>
<g>
</g>
<g>
</g>
<g>
</g>
<g>
</g>
<g>
</g>
<g>
</g>
<g>
</g>
<g>
</g>
<g>
</g>
<g>
</g>
<g>
</g>
<g>
</g>
<g>
</g>
<g>
</g>
</svg>
