<svg xmlns="http://www.w3.org/2000/svg" viewBox="0 0 15 15" width="15" height="15">
<g transform="translate(0.000000 0.000000) scale(0.058594)"><metadata> Svg Vector Icons : http://www.onlinewebfonts.com/icon </metadata>
<g><g><g><path fill="#000000" d="M122.7,26.7c-3.5,0.9-9.1,3.7-12.9,6.6c-11.2,8.4-21.6,25.6-29,47.5c-0.2,0.5-0.9,0.5-2.7-0.2c-1.8-0.7-4.3-1-9-1c-5.8-0.1-7,0.1-10.2,1.5c-5.8,2.4-9.7,5-14.4,9.7c-17.7,17.6-29.7,50.7-33.9,93.5c-0.8,8.1-1,38.4-0.3,42.7l0.4,2.7h33.9h33.9l-1.3-4.5c-10.1-34.7,10-71.9,41.2-76.2c15.6-2.2,32.6,6.2,42.6,21.1c10.5,15.6,13.8,37.4,8.4,55.8c-0.5,1.5-0.9,3-0.9,3.3c0,0.2,17.4,0.5,38.6,0.5H246l-0.3-6.2c-0.7-11.8-2.1-25.6-3.5-33.9c-6.8-40-22.6-70.8-41.5-80.7c-4.5-2.3-10.3-3.9-14.2-4h-2.1l-1-4.5c-8-37.1-24-64.5-42.6-72.3c-3.7-1.5-5.1-1.8-10-1.9C127.5,26.2,124,26.4,122.7,26.7z" /></g></g></g>
</g></svg>