<svg xmlns="http://www.w3.org/2000/svg" baseProfile="full" height="15" version="1.1" width="15" viewBox="0 0 15 15"><defs /><g transform="translate(7.500000 7.500000) scale(1.000000) translate(-8.000000 -9.000000)"><path d="m 72,211 c -0.5,1.25 -1.75,2.25 -3,3 h 2 c -0.5,1.25 -1.75,2.25 -3,3 h 2 c -0.5,1.25 -1.75,2.25 -3,3 h 4 v 3 h 2 v -3 h 4 c -1.25,-0.75 -2.5,-1.75 -3,-3 h 2 c -1.25,-0.75 -2.5,-1.75 -3,-3 h 2 c -1.25,-0.75 -2.5,-1.75 -3,-3 z" fill="#000" transform="translate(8.0,8.0) translate(-72.0,-216.0)" /><path d="m 72,211 c -0.5,1.25 -1.75,2.25 -3,3 h 2 c -0.5,1.25 -1.75,2.25 -3,3 h 2 c -0.5,1.25 -1.75,2.25 -3,3 h 4 v 3 h 2 v -3 h 4 c -1.25,-0.75 -2.5,-1.75 -3,-3 h 2 c -1.25,-0.75 -2.5,-1.75 -3,-3 h 2 c -1.25,-0.75 -2.5,-1.75 -3,-3 z" fill="#000" transform="translate(8.0,8.0) translate(-72.0,-216.0)" /></g></svg>