<svg xmlns="http://www.w3.org/2000/svg" version="1.2" baseProfile="tiny" viewBox="0 0 15 15" overflow="inherit" width="15" height="15">
  <g transform="translate(7.500000 7.500000) scale(0.866667) translate(-7.500000 -7.500000)"><g transform="translate(0.000000 0.000000) scale(0.300000)"><path d="M41 1h-32c-2.2 0 -4 1.8 -4 4v40c0 2.2 1.8 4 4 4h32c2.2 0 4 -1.8 4 -4v-40c0 -2.2 -1.8 -4 -4 -4zm-24 40c0 1.1 -0.9 2 -2 2h-4c-1.1 0 -2 -0.9 -2 -2v-1c0 -1.1 0.9 -2 2 -2h4c1.1 0 2 0.9 2 2v1zm0 -8c0 1.1 -0.9 2 -2 2h-4c-1.1 0 -2 -0.9 -2 -2v-1c0 -1.1 0.9 -2 2 -2h4c1.1 0 2 0.9 2 2v1zm0 -8c0 1.1 -0.9 2 -2 2h-4c-1.1 0 -2 -0.9 -2 -2v-1c0 -1.1 0.9 -2 2 -2h4c1.1 0 2 0.9 2 2v1zm12 16c0 1.1 -0.9 2 -2 2h-4c-1.1 0 -2 -0.9 -2 -2v-1c0 -1.1 0.9 -2 2 -2h4c1.1 0 2 0.9 2 2v1zm0 -8c0 1.1 -0.9 2 -2 2h-4c-1.1 0 -2 -0.9 -2 -2v-1c0 -1.1 0.9 -2 2 -2h4c1.1 0 2 0.9 2 2v1zm0 -8c0 1.1 -0.9 2 -2 2h-4c-1.1 0 -2 -0.9 -2 -2v-1c0 -1.1 0.9 -2 2 -2h4c1.1 0 2 0.9 2 2v1zm12 16c0 1.1 -0.9 2 -2 2h-4c-1.1 0 -2 -0.9 -2 -2v-1c0 -1.1 0.9 -2 2 -2h4c1.1 0 2 0.9 2 2v1zm0 -8c0 1.1 -0.9 2 -2 2h-4c-1.1 0 -2 -0.9 -2 -2v-1c0 -1.1 0.9 -2 2 -2h4c1.1 0 2 0.9 2 2v1zm0 -8c0 1.1 -0.9 2 -2 2h-4c-1.1 0 -2 -0.9 -2 -2v-1c0 -1.1 0.9 -2 2 -2h4c1.1 0 2 0.9 2 2v1zm0 -9c0 1.1 -0.9 2 -2 2h-28c-1.1 0 -2 -0.9 -2 -2v-8c0 -1.1 0.9 -2 2 -2h28c1.1 0 2 0.9 2 2v8z" />
</g></g></svg>