<svg xmlns="http://www.w3.org/2000/svg" version="1.2" baseProfile="tiny" viewBox="0 0 15 15" overflow="inherit" width="15" height="15">
  <g transform="translate(7.500000 7.500000) scale(0.866667) translate(-7.500000 -7.500000)"><g transform="translate(0.000000 0.000000) scale(0.300000)"><path d="M25 0c-8.28 0 -15 6.66 -15 14.87c0 8.21 15 35.14 15 35.14s15 -26.92 15 -35.13c0 -8.21 -6.72 -14.87 -15 -14.87zm-0.05 19.31c-2.56 0 -4.63 -2.06 -4.63 -4.59c0 -2.53 2.07 -4.59 4.63 -4.59c2.56 0 4.63 2.05 4.63 4.59c0 2.53 -2.07 4.59 -4.63 4.59z" />
</g></g></svg>