<svg xmlns="http://www.w3.org/2000/svg" version="1.1" viewBox="0 0 15 15" width="15" height="15">
  <g transform="translate(7.500000 7.500000) scale(0.866667) translate(-7.500000 -7.500000)"><g transform="translate(0.000000 0.000000) scale(1.000000)"><path d="M3 0L4.5 0L4.5 15L3 15z" />
  <path d="M10.5 0L12 0L12 15L10.5 15z" />
  <path d="M3 0.5L12 0.5L12 1.5L3 1.5z" />
  <path d="M3 2.5L12 2.5L12 3.5L3 3.5z" />
  <path d="M3 6L12 6L12 7L3 7z" />
  <path d="M3 8L12 8L12 9L3 9z" />
  <path d="M3 11.5L12 11.5L12 12.5L3 12.5z" />
  <path d="M3 13.5L12 13.5L12 14.5L3 14.5z" />
</g></g></svg>