<svg xmlns="http://www.w3.org/2000/svg" viewBox="0 0 15 15" version="1.1" width="15" height="15">
  <g transform="translate(7.500000 7.500000) scale(0.866667) translate(-7.500000 -7.500000)"><g transform="translate(0.000000 0.000000) scale(1.000000)"><path d="M4 0C4.67 0 5 0.67 5 2L5 2.5L8 5L8 6L5 5L5 7L6 8L6 9L4 8L2 9L2 8L3 7L3 5L0 6L0 5L3 2.5L3 2C3 0.67 3.33 0 4 0ZM11 6C11.67 6 12 6.67 12 8L12 8.5L15 11L15 12L12 11L12 13L13 14L13 15L11 14L9 15L9 14L10 13L10 11L7 12L7 11L10 8.5L10 8C10 6.67 10.33 6 11 6Z" />
</g></g></svg>