<?xml version="1.0" encoding="UTF-8"?>
<svg width="15" height="15" viewBox="0 0 15 15" xmlns="http://www.w3.org/2000/svg" id="money_hand">
  <path d="M11 0C11 0 11 6 11 6C11 6 10 5.25 9.5 5.25C8.75 5.25 8.25 6.25 9 7C9 7 11 9 11 9C11 9 11 11.5 11 11.5C11 11.5 4 11.5 4 11.5C4 11.5 4 0 4 0L11 0zM4.5 9.5C4.5 10 4.5 11 4.5 11C4.5 11 6 11 6 11C6 10 5.5 9.5 4.5 9.5zM10.5 9.5C9.5 9.5 9 10 9 11L10.5 11L10.5 9.5zM7.25 4.5C5.99 4.5 5.5 5.17 5.5 6C5.5 6.83 6 7.5 7.25 7.5C8.25 7.5 8.5 7 8.5 7C8 6.25 8.25 5.5 8.75 5C8.75 5 8.25 4.5 7.25 4.5zM10.5 0.5L9 0.5C9 1.5 9.5 2 10.5 2L10.5 0.5zM6 0.5L4.5 0.5C4.5 0.5 4.5 2 4.5 2C5.5 2 6 1.5 6 0.5z"/>
</svg>
