<?xml version="1.0" encoding="UTF-8"?>
<svg width="15" height="15" viewBox="0 0 15 15" xmlns="http://www.w3.org/2000/svg" id="vending_hot_drink2">
  <path d="M11 0C12 0 12 0 12 1L12 14C12 15 12 15 11 15C11 15 4 15 4 15C3 15 3 15 3 14L3 1C3 0 3 0 4 0L11 0zM6.25 8C6.25 8 5.5 8 5.5 8C5 8 5 8.5 5 8.5C5 8.5 5 13.5 5 13.5C5 14 5.5 14 5.5 14L9.5 14C9.5 14 10 14 10 13.5C10 13.5 10 8.5 10 8.5C10 8 9.5 8 9.5 8L8.75 8C8.75 8 8.5 8.98 8.5 8.98C8.5 9.23 6.5 9.23 6.5 8.98C6.5 8.98 6.25 8 6.25 8zM10.5 1L4.5 1C4.5 1 4 1 4 1.5C4 1.5 4 5.5 4 5.5C4 5.5 4 6 4.5 6C4.5 6 10.5 6 10.5 6C10.5 6 11 6 11 5.5C11 5.5 11 1.5 11 1.5C11 1 10.5 1 10.5 1z"/>
</svg>
