<?xml version="1.0" encoding="UTF-8"?>
<svg width="15" height="15" viewBox="0 0 15 15" xmlns="http://www.w3.org/2000/svg" id="waste_shutoff">
  <path d="M6 0.5C6 0.5 6 2 6 2C6 2 8.5 2 8.5 2C9 2 9 2.5 9 2.5L9 12.5C9 12.5 9 13 8.5 13C8.5 13 6 13 6 13L6 14.5C6 15 3 15 3 14.5L3 13C3 13 0.5 13 0.5 13C0 13 0 12.5 0 12.5L0 2.5C0 2.5 0 2 0.5 2C0.5 2 3 2 3 2C3 2 3 0.5 3 0.5C3 0 6 0 6 0.5zM4.5 3.75C2.25 3.75 0.75 5.25 0.75 7.5C0.75 9.75 2.25 11.25 4.5 11.25C6.75 11.25 8.25 9.75 8.25 7.5C8.25 5.25 6.75 3.75 4.5 3.75z"/>
</svg>
