<svg xmlns="http://www.w3.org/2000/svg" viewBox="0 0 15 15" version="1.1" width="15" height="15">
  <g transform="translate(7.500000 7.500000) scale(0.866667) translate(-7.500000 -7.500000)"><g transform="translate(0.000000 0.000000) scale(1.000000)"><path d="M4.5 3L10.5 3C12.99 3 15 5.01 15 7.5L15 11.5C15 11.78 14.78 12 14.5 12L0.5 12C0.22 12 0 11.78 0 11.5L0 7.5C0 5.01 2.01 3 4.5 3ZM4.5 4C2.57 4 1 5.57 1 7.5L1 11L8 11L8 7.5C8 5.57 6.43 4 4.5 4ZM4.5 5C5.88 5 7 6.12 7 7.5L7 11L2 11L2 7.5C2 6.12 3.12 5 4.5 5Z" />
</g></g></svg>