<svg xmlns="http://www.w3.org/2000/svg" version="1.1" x="0" y="0" viewBox="0 0 15 15" width="15" height="15">
  <g transform="translate(7.500000 7.500000) scale(0.866667) translate(-7.500000 -7.500000)"><g transform="translate(0.000000 0.000000) scale(1.000000)"><path d="M14.5 6.5C14.5 9 14 11 12.5 11C12.5 11 2.5 11 2.5 11C1 11 0.5 9 0.5 6.5C6.5 9.5 8.5 9.5 14.5 6.5zM7.5 5.5C7.88 5.5 8.25 5.88 8.25 6.25C8.25 6.63 7.88 7 7.5 7C7.13 7 6.75 6.63 6.75 6.25C6.75 5.88 7.13 5.5 7.5 5.5zM13 4.5L2 4.5C1 4.5 0.5 5 0.5 6C6.5 9 8.5 9 14.5 6C14.5 5 14 4.5 13 4.5z" />
</g></g></svg>