<svg xmlns="http://www.w3.org/2000/svg" version="1.1" x="0" y="0" viewBox="0 0 15 15" width="15" height="15">
  <g transform="translate(7.500000 7.500000) scale(0.866667) translate(-7.500000 -7.500000)"><g transform="translate(0.000000 0.000000) scale(1.000000)"><path d="M13.5 1C14 0.5 6.5 0 3 3.5C1 5.5 0 8.5 0 10C0 12 1 15 3 15C10 15 12.5 9.5 13.5 7.5C14.5 5.5 15 1.5 14 1.5C13.5 1.5 11 3 10 4C9 5 9 7 8 8C7 9 5.5 9 4.5 10C3.5 11 2 12.5 2 12.5C2 12.5 2.5 10 3.5 9C4.5 8 5.5 8 6.5 7C7.5 6 8 4 9 3C10 2 13 1.5 13.5 1z" />
</g></g></svg>