<?xml version="1.0" encoding="UTF-8"?>
<svg width="15" height="15" viewBox="0 0 15 15" xmlns="http://www.w3.org/2000/svg" id="school">
  <path d="M10 0L10 15C10 15 0 15 0 15C0 15 0 0 0 0L10 0zM9 1L1 1L1 14C1 14 9 14 9 14L9 1zM2.5 4C2.5 4 7.5 4 7.5 4C8 4 8 5 7.5 5C7.5 5 2.5 5 2.5 5C2 5 2 4 2.5 4zM2.5 6C2.5 6 7.5 6 7.5 6C8 6 8 7 7.5 7C7.5 7 2.5 7 2.5 7C2 7 2 6 2.5 6zM2.5 8C2.5 8 7.5 8 7.5 8C8 8 8 9 7.5 9C7.5 9 2.5 9 2.5 9C2 9 2 8 2.5 8zM2.5 10C2.5 10 7.5 10 7.5 10C8 10 8 11 7.5 11C7.5 11 2.5 11 2.5 11C2 11 2 10 2.5 10z"/>
</svg>
