<svg xmlns="http://www.w3.org/2000/svg" version="1.1" x="0" y="0" viewBox="0 0 15 15" width="15" height="15">
  <g transform="translate(7.500000 7.500000) scale(0.866667) translate(-7.500000 -7.500000)"><g transform="translate(0.000000 0.000000) scale(1.000000)"><path d="M0 5C6 5 8 9.5 8 12C8 12 8 14 8 14L0 14C0 14 0 5 0 5z" />
  <path d="M9 11L15 11L15 14L9 14L9 11z" />
  <path d="M8.23 2.24C8.23 2.24 9.5 1 9.5 1C9.5 1 12.32 4.07 12.32 4.07C12.32 4.07 14 2.5 14 2.5C14 2.5 14 7 14 7C14 7 9.5 7 9.5 7C9.5 7 10.99 5.31 10.99 5.31C10.99 5.31 8.23 2.24 8.23 2.24z" />
</g></g></svg>