<?xml version="1.0" encoding="UTF-8"?>
<svg width="15" height="15" viewBox="0 0 15 15" xmlns="http://www.w3.org/2000/svg" id="roller_coaster">
  <path d="M5.5 5C5.5 5 15 15 15 15C15 15 13.5 15 13.5 15C13.5 15 12 13.5 12 13.5C12 13.5 12 15 12 15L11 15C11 15 11 12.5 11 12.5C11 12.5 9 10.25 9 10.25C9 10.25 9 15 9 15L8 15C8 15 8 9.5 8 9.5C8 9.5 6 7.25 6 7.25C6 7.25 6 15 6 15L5 15C5 15 5 6.25 5 6.25C5 6.25 3.75 4.75 3 4.75L3 15L2 15L2 4.75C1 4.75 0 5.75 0 5.75C0 5.75 0 4.25 0 4.25C0 4.25 1 3.5 2.5 3.5C4.5 3.5 5.5 5 5.5 5z"/>
</svg>
