<svg xmlns="http://www.w3.org/2000/svg" version="1.1" x="0" y="0" viewBox="0 0 15 15" width="15" height="15">
  <g transform="translate(7.500000 7.500000) scale(0.866667) translate(-7.500000 -7.500000)"><g transform="translate(0.000000 0.000000) scale(1.000000)"><path d="M14 2C15 2 14.5 3 14 3C12 3 11.5 3.5 10 7C8 11.5 6.75 13 3 13C0.5 13 0.5 11 0.5 10C0.5 9 0.5 8.25 0.75 7.5C1.25 7.75 1.75 8 3 8C4.25 8 4.75 7.75 5.25 7.5C5.5 8.25 5.5 9 5.5 10C5.5 10 7.5 9.5 9 6.5C10.5 3 11.5 2 14 2zM5 7C5 6.75 3 6.75 3 6.75C3 6.75 1 6.75 1 7C1 7.25 2 7.5 3 7.5C4 7.5 5 7.25 5 7z" />
</g></g></svg>