<svg xmlns="http://www.w3.org/2000/svg" version="1.2" baseProfile="tiny" viewBox="0 0 15 15" overflow="inherit" width="15" height="15">
  <g transform="translate(0.000000 0.000000) scale(0.300000)"><path d="M25.55 36.17c3.6 16.81 23.92 3.05 3.74 -8.66c22.24 12.91 22.29 -17.92 0.05 -5.02c22.25 -12.9 -4.32 -28.31 -4.32 -2.51c0.01 -25.81 -26.56 -10.4 -4.33 2.51c-22.24 -12.91 -22.26 17.92 -0.02 5.02c-20.19 11.7 0.08 25.48 3.68 8.64l1.2 0.03zm-3.21 -11.17c0 -1.49 1.2 -2.69 2.67 -2.69c1.48 0 2.67 1.2 2.67 2.69c0 1.48 -1.2 2.69 -2.67 2.69c-1.47 0 -2.67 -1.2 -2.67 -2.69z" />
</g></svg>