<svg xmlns="http://www.w3.org/2000/svg" version="1.1" x="0" y="0" viewBox="0 0 15 15" width="15" height="15">
  <g transform="translate(7.500000 7.500000) scale(0.928571) translate(-7.000000 -8.000000)"><g transform="translate(0.000000 0.000000) scale(1.000000)"><path d="M13.5 1C14 1 14 1.4 14 1.4C14 1.4 14 1.8 13.5 1.8L12.5 1.8C11 4.4 11 4.4 10.08 6.08C10.5 6.5 10 8 9.5 9C8.79 10.41 8 11.5 7.38 11.35C8 11.5 8 12 8 12.5C8 13 8 14 7.5 14L7.3 14C7.29 14.22 7 14.5 6.5 14.5C6 14.5 5.7 14.22 5.7 14L3.5 14C3.44 14.4 3.06 14.5 2.75 14.5C2.47 14.5 2.08 14.37 2 14L1.5 14C0.5 14 0.5 13 1 12.5C1.5 12 2.02 12 3 12C3.5 12 4 11 5.5 11L5.5 11L6 11C5.5 10.5 6.19 9.11 7 7.5C7.5 6.5 8 5.51 9.46 5.75C12 1.01 12 1 12.5 1L13.5 1z" />
</g></g></svg>