<svg xmlns="http://www.w3.org/2000/svg" version="1.1" viewBox="0 0 15 15" width="15" height="15">
  <g transform="translate(7.500000 7.500000) scale(0.866667) translate(-7.500000 -7.500000)"><g transform="translate(0.000000 0.000000) scale(1.000000)"><path d="M3 0.5L7 0.5L7 2.5L3 2.5z" />
  <path d="M3 8.5L7 8.5L7 10.5L3 10.5z" />
  <path d="M3 12.5L7 12.5L7 14.5L3 14.5z" />
  <path d="M3 4.5L7 4.5L7 6.5L3 6.5z" />
  <path d="M8 0.5L12 0.5L12 2.5L8 2.5z" />
  <path d="M8 8.5L12 8.5L12 10.5L8 10.5z" />
  <path d="M8 12.5L12 12.5L12 14.5L8 14.5z" />
  <path d="M8 4.5L12 4.5L12 6.5L8 6.5z" />
</g></g></svg>