<svg xmlns="http://www.w3.org/2000/svg" version="1.1" x="0" y="0" viewBox="0 0 15 15" width="15" height="15">
  <g transform="translate(7.500000 7.500000) scale(0.866667) translate(-7.500000 -7.500000)"><g transform="translate(0.000000 0.000000) scale(1.000000)"><path d="M15 5.5C15 5.5 11.5 1.5 11.5 1.5C11.5 1.5 3.5 1.5 3.5 1.5C3.5 1.5 0 5.5 0 5.5C0 5.5 7.5 14 7.5 14C7.5 14 15 5.5 15 5.5zM10.75 5.5L11.5 2.5L14 5.5L10.75 5.5zM10.5 6.25L13.25 6.25L8.5 12L10.5 6.25zM10 5.5L8 2.25L10.75 2.25L10 5.5zM5.5 6.25L9.5 6.25L7.5 12.5L5.5 6.25zM5.75 5.5L7.5 2.5L9.25 5.5L5.75 5.5zM5 5.5L4.25 2.25L7 2.25L5 5.5zM6.5 12L1.5 6.25L4.5 6.25L6.5 12zM3.5 2.5L4.25 5.5L1 5.5L3.5 2.5z" />
</g></g></svg>