<svg xmlns="http://www.w3.org/2000/svg" viewBox="0 0 15 15" x="0px" y="0px" width="15" height="15">
  <g transform="translate(7.500000 7.500000) scale(0.866667) translate(-7.500000 -7.500000)"><g transform="translate(0.000000 0.000039) scale(0.312500)"><path d="M3.98 36H16.02A0.98 0.98 0 0 0 17 35.02V17a0.98 0.98 0 0 0 -1.8 -0.54L3.17 34.48A0.98 0.98 0 0 0 3.98 36Z" />
  <path d="M20 36H43.99a1 1 0 0 0 1.01 -1.02C44.58 16.6 32.84 0.76 20.03 0a0.99 0.99 0 0 0 -1.03 1V35A1 1 0 0 0 20 36Z" />
  <path d="M46 39H2a2 2 0 0 0 -2 2a7 7 0 0 0 7 7H41a7 7 0 0 0 7 -7A2 2 0 0 0 46 39Z" />
</g></g></svg>