<svg xmlns="http://www.w3.org/2000/svg" version="1.1" viewBox="0 0 15 15" width="15" height="15">
  <g transform="translate(7.500000 7.500000) scale(0.866667) translate(-7.000000 -7.500000)"><g transform="translate(0.000000 0.000000) scale(1.000000)"><path d="M6 7.5C6 7.5 6 3 6 2.95C6 -1 9 0 9 4L9 9C9 9 8.5 9 9.5 9C10.5 9 10.5 8 10.5 7C10.5 5 12 5.5 12 7C12 9 12 11 10 11C9 11 9 11 9 11C9 11 9 14 9 14C9 15 6 15 6 14C6 14 6 9.5 6 9.5C6 9.5 6.5 9.5 5 9.5C2.5 9.5 2.5 7 2.5 5C2.5 4 4 3 4 5C4 6 4 7.5 5 7.5C6 7.5 6 7.5 6 7.5z" />
</g></g></svg>