<?xml version="1.0" encoding="UTF-8"?>
<svg width="15" height="15" viewBox="0 0 15 15" xmlns="http://www.w3.org/2000/svg" id="vending_flat_coin">
  <path d="M11 0C12 0 12 0 12 1L12 14C12 15 12 15 11 15C11 15 4 15 4 15C3 15 3 15 3 14L3 1C3 0 3 0 4 0L11 0zM4.5 8C4.5 8 4 8 4 8.5C4 8.5 4 13.5 4 13.5C4 14 4.5 14 4.5 14L10.5 14C10.5 14 11 14 11 13.5C11 13.5 11 8.5 11 8.5C11 8 10.5 8 10.5 8C10.5 8 4.5 8 4.5 8zM10.5 1L4.5 1C4.5 1 4 1 4 1.5C4 1.5 4 5.5 4 5.5C4 5.5 4 6 4.5 6C4.5 6 10.5 6 10.5 6C10.5 6 11 6 11 5.5C11 5.5 11 1.5 11 1.5C11 1 10.5 1 10.5 1z"/>
</svg>
