<?xml version="1.0" encoding="UTF-8"?>
<svg width="15" height="15" viewBox="0 0 15 15" xmlns="http://www.w3.org/2000/svg" id="beauty_salon">
  <path d="M11.5 2C11.5 2 9.5 2 9.5 2C9 2 9 3 9.5 3C9.5 3 11.5 3 11.5 3C12 3 12 4 11.5 4C11.5 4 9.5 4 9.5 4C9 4 9 5 9.5 5C9.5 5 11.5 5 11.5 5C12 5 12 6 11.5 6C11.5 6 9.5 6 9.5 6C9 6 9 7 9.5 7C9.5 7 11.5 7 11.5 7C12 7 12 8 11.5 8C11.5 8 9.5 8 9.5 8C9 8 9 9 9.5 9C9.5 9 11.5 9 11.5 9C12 9 12 10 11.5 10C11.5 10 9.5 10 9.5 10C9 10 9 11 9.5 11C9.5 11 11.5 11 11.5 11C12 11 12 12 11.5 12C11.5 12 9.5 12 9.5 12C9 12 9 13 9.5 13C9.5 13 11.5 13 11.5 13C12 13 12 14 11.5 14C11.5 14 9.5 14 9.5 14C9 14 9 15 9.5 15C9.5 15 13.5 15 13.5 15C14 15 14 14 14 14L14 1C14 1 14 0 13.5 0L9.5 0C9 0 9 1 9.5 1C9.5 1 11.5 1 11.5 1C12 1 12 2 11.5 2z"/>
</svg>
