<svg xmlns="http://www.w3.org/2000/svg" version="1.1" viewBox="0 0 15 15" width="15" height="15">
  <g transform="translate(7.500000 7.500000) scale(0.866667) translate(-7.500000 -7.500000)"><g transform="translate(0.000000 0.000000) scale(1.000000)"><path d="M3 0.5L12 0.5L12 2.5L3 2.5z" />
  <path d="M3 2.5L12 2.5L12 4.5L3 4.5z" fill-opacity="0.3" />
  <path d="M3 4.5L12 4.5L12 6.5L3 6.5z" />
  <path d="M3 6.5L12 6.5L12 8.5L3 8.5z" fill-opacity="0.3" />
  <path d="M3 8.5L12 8.5L12 10.5L3 10.5z" />
  <path d="M3 10.5L12 10.5L12 12.5L3 12.5z" fill-opacity="0.3" />
  <path d="M3 12.5L12 12.5L12 14.5L3 14.5z" />
</g></g></svg>