<?xml version="1.0" encoding="UTF-8"?>
<svg width="15" height="15" viewBox="0 0 15 15" xmlns="http://www.w3.org/2000/svg" id="vending_newspaper">
  <path d="M9.5 0C9.5 0 10 0 10 0.5L10 5C10 5 11.5 5 11.5 5C11.5 5 12 5 12 5.5C12 5.5 12 14.5 12 14.5C12 15 11.5 15 11.5 15C11.5 15 3.5 15 3.5 15C3.5 15 3 15 3 14.5C3 14.5 3 5.5 3 5.5C3 5 3.5 5 3.5 5L5 5L5 0.5C5 0 5.5 0 5.5 0L9.5 0zM10.5 6L4.5 6L4.5 10L10.5 10L10.5 6zM8.5 4C8.5 4 6.5 4 6.5 4C6 4 6 4.5 6.5 4.5C6.5 4.5 7 4.5 7 4.5C7 4.5 7 5.75 7 5.75C7 5.75 8 5.75 8 5.75C8 5.75 8 4.5 8 4.5C8 4.5 8.5 4.5 8.5 4.5C9 4.5 9 4 8.5 4zM8.5 1L6.5 1L6.5 2.5L8.5 2.5L8.5 1z"/>
</svg>
