<svg xmlns="http://www.w3.org/2000/svg" viewBox="0 0 15 15" version="1.1" width="15" height="15">
  <g transform="translate(7.500000 7.500000) scale(0.866667) translate(-7.500000 -7.500000)"><g transform="translate(0.000000 0.000000) scale(1.000000)"><path d="M10.88 6.13L15 7.5L10.88 8.87L10.27 7.5L10.88 6.13ZM8.87 10.88L7.5 15L6.13 10.88L7.5 10.27L8.87 10.88ZM4.12 8.87L0 7.5L4.12 6.13L4.73 7.5L4.12 8.87ZM6.13 4.12L7.5 0L8.87 4.12L7.5 4.73L6.13 4.12ZM4 4L7.5 5.55L11 4L9.45 7.5L11 11L7.5 9.45L4 11L5.55 7.5L4 4Z" />
</g></g></svg>