<?xml version="1.0" encoding="UTF-8"?>
<svg xmlns="http://www.w3.org/2000/svg" width="15" height="15" viewBox="0 0 16.532 12.5">
  <path d="M15.8 9.806c0-0.472 0-0.944 0-1.416-0.897 0-1.795 0-2.692 0-0.074 0.416-0.011 0.953-0.031 1.416C13.983 9.806 14.892 9.806 15.8 9.806ZM15.8 11.779c0-0.48 0-0.963 0-1.444-0.897 0-1.795 0-2.692 0-0.074 0.426-0.011 0.972-0.031 1.444C13.983 11.779 14.892 11.779 15.8 11.779ZM15.8 7.917c0-0.481 0-0.963 0-1.444-0.897 0-1.795 0-2.692 0-0.074 0.427-0.011 0.973-0.031 1.444C13.983 7.917 14.892 7.917 15.8 7.917ZM15.8 6c-0.021-0.491 0.043-1.055-0.032-1.5-0.989 0.383-1.956 0.787-2.95 1.167C12.861 5.779 12.882 5.909 12.947 6C13.898 6 14.849 6 15.8 6ZM7.08 2.973c-0.073-0.81-0.224-1.432-0.321-2.25C6.151 0.741 5.456 0.686 4.9 0.75c0.463 0.812 0.799 1.734 1.283 2.528C6.43 3.132 6.762 3.058 7.08 2.973ZM4.515 4.473C3.865 3.832 3.174 3.227 2.463 2.64C2.456 2.679 2.41 2.686 2.399 2.723c-0.286 0.225-0.554 0.465-0.834 0.694-0.152 0.109-0.291 0.229-0.416 0.361-0.095 0.038-0.13 0.128-0.225 0.167-0.018 0.04-0.05 0.067-0.097 0.083 0.001 0.041-0.135 0.088 0 0.083C1.847 4.506 2.88 4.889 3.938 5.25 4.13 4.991 4.27 4.686 4.515 4.473ZM0.25 4C1.666 2.753 3.068 1.496 4.483 0.25c2.586 0 5.173 0 7.758 0 1.325 1.251 2.688 2.467 4.04 3.695 0 2.769 0 5.537 0 8.305-5.345 0-10.687 0-16.032 0C0.25 9.5 0.25 6.75 0.25 4ZM11.666 4.056c0.657-0.625 1.375-1.197 2.02-1.833-0.548-0.489-1.056-1.011-1.604-1.5-0.402 0.93-0.829 1.838-1.218 2.779 0.291 0.163 0.535 0.369 0.802 0.555ZM2.879 2.278c0.612 0.636 1.349 1.164 1.988 1.778 0.272-0.191 0.573-0.355 0.801-0.583-0.43-0.832-0.793-1.72-1.25-2.528-0.499 0.456-1.013 0.9-1.54 1.333ZM9.003 2.89c0.147-0.697 0.211-1.554 0.353-2.168-0.672 0-1.347 0-2.02 0 0.073 0.685 0.244 1.384 0.321 2.14C8.132 2.843 8.567 2.822 9.003 2.89ZM12.017 4.445c0.239 0.218 0.407 0.499 0.579 0.777 1.069-0.368 2.104-0.769 3.172-1.139-0.531-0.531-1.13-1.002-1.73-1.472-0.646 0.636-1.367 1.205-2.021 1.834ZM0.796 6.473C0.721 6.9 0.785 7.446 0.764 7.917c0.908 0 1.816 0 2.725 0 0-0.481 0-0.963 0-1.444-0.899 0-1.795 0-2.693 0ZM3.65 5.973C3.662 5.9 3.666 5.82 3.713 5.778 3.581 5.587 3.232 5.584 3.04 5.445c-0.263-0.077-0.504-0.174-0.737-0.278C1.787 4.994 1.33 4.769 0.796 4.612 0.794 4.595 0.791 4.579 0.764 4.584c0 0.472 0 0.944 0 1.417 0.951-0.019 1.987 0.036 2.886-0.028ZM9.516 2.973c0.322 0.083 0.612 0.193 0.897 0.306 0.379-0.858 0.792-1.685 1.155-2.556-0.578 0-1.155 0-1.731 0C9.729 1.471 9.638 2.235 9.516 2.973ZM0.796 8.39C0.721 8.806 0.785 9.343 0.764 9.806c0.908 0 1.816 0 2.725 0 0-0.472 0-0.944 0-1.416-0.899 0-1.795 0-2.693 0ZM0.796 10.334c-0.075 0.426-0.011 0.972-0.032 1.444 0.908 0 1.816 0 2.725 0 0-0.48 0-0.963 0-1.444-0.899 0-1.795 0-2.693 0Z"/>
</svg>
